PathFileType	4	(X/Y/Z)	8_2_37_p0_0-225_filt_butterworth.trc
DataRate	CameraRate	NumFrames	NumMarkers	Units	OrigDataRate	OrigDataStartFrame	OrigNumFrames
60.0	60.0	6	27	m	60.0	196	225
Frame#	Time	RHip			RKnee			RAnkle			RBigToe			RSmallToe			RHeel			LHip			LKnee			LAnkle			LBigToe			LSmallToe			LHeel			Neck			Head			Nose			RShoulder			RElbow			RWrist			RThumb			RIndex			RPinky			LShoulder			LElbow			LWrist			LThumb			LIndex			LPinky			
		X1	Y1	Z1	X2	Y2	Z2	X3	Y3	Z3	X4	Y4	Z4	X5	Y5	Z5	X6	Y6	Z6	X7	Y7	Z7	X8	Y8	Z8	X9	Y9	Z9	X10	Y10	Z10	X11	Y11	Z11	X12	Y12	Z12	X13	Y13	Z13	X14	Y14	Z14	X15	Y15	Z15	X16	Y16	Z16	X17	Y17	Z17	X18	Y18	Z18	X19	Y19	Z19	X20	Y20	Z20	X21	Y21	Z21	X22	Y22	Z22	X23	Y23	Z23	X24	Y24	Z24	X25	Y25	Z25	X26	Y26	Z26	X27	Y27	Z27	
196	3.2666666666666666	0.237984502081373	0.5677211785452623	0.8492987181693507	0.24828426039978102	0.6981568736316828	1.2704235595886944	0.23438263413265198	0.9503335454098224	1.7065568867295517	0.21037240164404575	0.6899347941776265	1.7469766949552097	0.2686542889832906	0.7407268794267785	1.754626368960112	0.23063393620003442	1.0093822455680383	1.7506109942206245	0.034668116902483	0.614790365288365	0.8536783464220996	0.02930697004964526	0.7275799173473706	1.2695822175328253	0.04625631629295872	0.8723415112394476	1.6967364491419188	0.03165072396210337	0.7267265347652208	1.780649174174753	-0.0167142747790141	0.7309839789129238	1.7466799090774572	0.06828461355232107	0.9552100082213695	1.751118295481013	0.0895145404784315	0.4306396385480832	0.243895931021138	0.08807282335039221	0.30741365093393913	0.009133048370428816	0.0726992281583959	0.2543452082504634	0.16498614347276302	0.2604238250431836	0.4655831239435913	0.31464362365841986	0.32593759214221113	0.48162106997256765	0.5761327885313852	0.29513385529961245	0.46321216541751903	0.842692932229263	0.21750768130319442	0.5135106422283743	0.9658775022515237	0.22515384172528088	0.5096974210075631	0.9810727812230269	0.2895032148551325	0.4852085690274212	0.9673563915210537	-0.05417958133125431	0.4943022553694504	0.34967369440293444	-0.09260085275191489	0.6255666437303967	0.6098636488032996	-0.07598865502950672	0.5943544690629805	0.8456692357004939	-0.054824168179885474	0.5802508123315933	0.9403375089678376	-0.06868474927626508	0.5933096384120145	1.0017411999328347	-0.07880666041469599	0.606907683318543	0.9854970937183692
197	3.283333333333333	0.23594916690422144	0.56830836436934	0.8481694766519653	0.2457484586983139	0.6897467698352505	1.2652217905446013	0.23316325647406166	0.9458710253353146	1.7046665884796894	0.2095190184271219	0.6903740891779838	1.747581160743437	0.2676886364684408	0.7374954290991451	1.7523688167964813	0.22899211050677626	1.0038825919275112	1.7487437218205333	0.031616870479825775	0.6158730964800874	0.8528454786966964	0.028462005937370534	0.728753502820575	1.2686874531471537	0.04730168139067653	0.8696197246928222	1.6895205589267428	0.028056261027205244	0.7363513795221609	1.7830433392015477	-0.019558161434392388	0.7400895731610824	1.747983664579751	0.07016430432624023	0.9538586663067045	1.7466291077576428	0.08769274094493772	0.43438596449040334	0.24433861831207576	0.08852128137354555	0.3062957279323883	0.009174877750719936	0.07262095834022776	0.25438977372078597	0.1650133585919086	0.2591477217231269	0.4653274148810361	0.3150209016242716	0.3226401029137362	0.48196207688106113	0.5759206710500371	0.29107683950874563	0.4519021673529547	0.8413466685863078	0.21422180284712306	0.5061385087211274	0.9645718788432448	0.22310657404706422	0.5085852830966505	0.9810316753605193	0.27739062332159115	0.4745881019950961	0.9659691656502822	-0.0574390612711975	0.4939055098092392	0.34983703870041616	-0.09633035025988007	0.6260393270978849	0.6112104961965641	-0.07820156856605226	0.591097158543919	0.8465359424920328	-0.05561766630831939	0.5803974769916668	0.9399076002332726	-0.06956402657818392	0.590495154967864	1.000191209743458	-0.080379205641904	0.5991019062427256	0.9854580462414171
198	3.3	0.2346435886121048	0.5686227732944711	0.8461026914153075	0.24143536022537893	0.6778564641988721	1.259089092842316	0.2315448481636103	0.9398233617072185	1.7018542978399958	0.20844606997274984	0.6872176180170075	1.747960235720221	0.2672545844500681	0.7356252739744894	1.7512241913221638	0.22749596425028998	0.9973095434674842	1.746693531865069	0.028271742127067095	0.6191230661746803	0.8518383232287661	0.028534671660373746	0.7286450572989184	1.2661362968998273	0.04753696753736083	0.8681270329486064	1.6833012648858103	0.025237902682879086	0.7416059543990794	1.783985892111974	-0.021416354847632924	0.7455914784910289	1.7490804910359572	0.07144310797707969	0.9528623862008223	1.7421238279219426	0.08641180513135902	0.4372586601769807	0.2448255259825483	0.09000183472821191	0.3036076394150298	0.009620486611517789	0.07262625225405009	0.2544044072649586	0.1650664911341835	0.258137511799217	0.464689860788117	0.3148737586096223	0.31937621984029774	0.4838412985653168	0.5757432325327837	0.2861711145414892	0.4410829143185202	0.8401742871318743	0.20886504059755576	0.4930250706515014	0.9618534032824213	0.22024730531216552	0.5078817514150084	0.9808830180120547	0.26394126155945735	0.4675593527140004	0.9657138200157463	-0.06036634931603123	0.49293552573483157	0.34878277573579175	-0.0994913668909872	0.6252355434621619	0.6110609306552947	-0.08012512415368173	0.5862691887985713	0.8465920238803841	-0.055903683016112565	0.5806797733775174	0.9398262267496854	-0.0698172838866005	0.5862363110818867	0.9990690615940632	-0.0824303455729676	0.5895326700872503	0.9844367196460311
199	3.316666666666667	0.23407213314357972	0.5686843206261089	0.8440443489150639	0.23684349925779338	0.664811626270275	1.2534434961461822	0.23033253354865493	0.9352822624435828	1.6998547563752227	0.20710705503615712	0.6796632424892757	1.747236951934255	0.2667525422534981	0.7340798701382225	1.7505270028254591	0.2263969846869588	0.9898812432942636	1.744078548509237	0.024936091718301884	0.6248594413540971	0.8513694738000708	0.02880703839012491	0.7283374250728878	1.2638585816224552	0.04723885614564081	0.8698216188128707	1.6800958564101174	0.023715761821611902	0.74235325103576	1.7832501586306284	-0.022052447951015828	0.7466225701614952	1.7499968734591014	0.07178249877188293	0.952514417809143	1.7395527401019761	0.0854503581305092	0.4383242893064404	0.2447232375930503	0.09244626485506915	0.30017839240627137	0.010005242288826908	0.07302228220092867	0.25452164802665056	0.1650264593844148	0.25731718421539873	0.4645993772706453	0.3146291476040798	0.3161562252626343	0.4889741332691885	0.5756508304695271	0.2807466263360953	0.43422836680711857	0.8393242955077859	0.20076463660278357	0.47402881971619376	0.9567343436647693	0.2160635435831428	0.5059296372431131	0.9796906190081688	0.2521969104481332	0.4661127024505831	0.9660228616405839	-0.06311804654025066	0.4927155182748042	0.34610508292899456	-0.10283607597743286	0.6242806412983003	0.6106758982129314	-0.08150532024490915	0.5811757572314582	0.846173779915841	-0.05533713373066343	0.5796293370988673	0.9398815270325367	-0.06995577656555768	0.5774286958841668	0.9973731306398168	-0.08523126466572761	0.5780556421988157	0.9830373811323339
200	3.333333333333333	0.23382425864091305	0.5685167896367361	0.8430362631081859	0.23365664849177875	0.6552384297346778	1.2497739770171559	0.22980412543105688	0.933590405132794	1.699524261022498	0.20590969243479823	0.671732566527292	1.745972923766561	0.26584290010644507	0.733084526630473	1.7499813013005094	0.2256806538187368	0.9824054570772749	1.7411708189383466	0.021885548412006375	0.6319815681678242	0.8515634012680996	0.02892013056122074	0.7284074405014447	1.262872449650973	0.04707235492080804	0.8745839633165288	1.679934343793344	0.023070666656825178	0.7412224732268993	1.780853782786512	-0.02180172090337719	0.7452606812148982	1.7508568506188198	0.07099556496481693	0.9549416390498313	1.7408019783178152	0.08430301638486176	0.4381326957675338	0.2439494299364291	0.09488769120783071	0.2976974716629085	0.009887117566050013	0.07401970146924841	0.254755450824055	0.16466360291140866	0.25628124696935123	0.4661125854000039	0.31481940117378204	0.3128269942623366	0.49998308017551524	0.5756299970202202	0.2749895503448161	0.4314019601743991	0.8379968582628006	0.19015721566670984	0.4528046472939406	0.9485576631382313	0.21003225426499428	0.49758535697123907	0.9755155414808367	0.24420037276796452	0.4691639223506513	0.9652416118168115	-0.06634767064591236	0.4942016670242238	0.34215768926377993	-0.10766004099293211	0.6239447637252337	0.6105415257801441	-0.08255929939772286	0.5745188874674786	0.8452388504970317	-0.05302069151455679	0.5734196602450957	0.9397119268008429	-0.07025887902543458	0.5630721663753402	0.9941296015701658	-0.08839722389175858	0.5666277816497197	0.9821478420753668
201	3.35	0.23364431933230342	0.5680642844642146	0.8430193418476303	0.23227954656672611	0.6509371770234798	1.2483581959383037	0.22967462700039787	0.933626291924981	1.7005804502393072	0.20538509144824565	0.6696966748650257	1.745800578114352	0.2652517706729341	0.7348905693533865	1.7504352216304047	0.22570057065038118	0.9771097049935229	1.7393111172150244	0.019014845297439253	0.6384186920942253	0.8516986062646321	0.028745643111272725	0.7289735569499519	1.2628438237627115	0.04671384302907785	0.8797138564992092	1.681167761754527	0.02293253570249974	0.7405727401543891	1.777709543241801	-0.02085577602705172	0.7444396363055658	1.7514921674139385	0.06915585660572732	0.9613584386078506	1.7458139807582147	0.08297143813206416	0.43755378481698526	0.24306425418682853	0.09632864374907327	0.29684742774402056	0.009491229541323965	0.07532326632863581	0.2549318005081403	0.16382861106106064	0.2550585481644057	0.4699706845486792	0.3161337845029113	0.309277666221073	0.5169772784516089	0.5757326868856061	0.2682335141319746	0.4312884817776136	0.8350184059654387	0.17816002072362086	0.43534150574212416	0.9378656022137107	0.2009731625525831	0.48054859159033103	0.9663376165287966	0.2394885867201494	0.47482900856424015	0.9612966486650689	-0.07024290985806997	0.4969527745532109	0.3380297554690074	-0.11475360291440313	0.6239411663102744	0.6101305611805006	-0.08335891301447729	0.5641661121543615	0.843551919772984	-0.0484396900934586	0.5585040170438489	0.9387781005556759	-0.07057945367712153	0.5430597207714349	0.9888949081331935	-0.09089120342077878	0.5573851617779485	0.9820132205415242
